<svg version="1.1" id="Layer_1" xmlns="http://www.w3.org/2000/svg" xmlns:xlink="http://www.w3.org/1999/xlink" x="0px" y="0px"
	 width="100%" viewBox="0 0 1080 1080" enable-background="new 0 0 1080 1080" xml:space="preserve">
<path fill="#000000" opacity="1.000000" stroke="none" 
	d="
M1.000000,393.000000 
	C1.000000,262.015045 1.000000,131.530121 1.000000,1.022588 
	C360.943390,1.022588 720.886780,1.022588 1080.915039,1.022588 
	C1080.915039,360.901825 1080.915039,720.803711 1080.915039,1080.852783 
	C721.000061,1080.852783 361.000031,1080.852783 1.000000,1080.852783 
	C1.000000,851.779358 1.000000,622.639709 1.000000,393.000000 
M1053.998535,363.500000 
	C1053.666138,304.883484 1053.427734,246.266190 1052.938843,187.650970 
	C1052.807129,171.858154 1047.936523,157.005844 1041.307373,142.908340 
	C1032.216309,123.574814 1018.862976,107.459221 1001.420105,95.016602 
	C980.465454,80.068878 957.171814,71.099144 931.268860,71.085129 
	C672.945129,70.945335 414.621368,70.980522 156.297623,71.085571 
	C147.559586,71.089119 138.674515,71.564751 130.112442,73.174164 
	C105.989616,77.708549 84.646194,88.505661 67.189011,105.677872 
	C58.566639,114.159485 50.773384,123.985374 44.670124,134.411865 
	C34.915989,151.075363 28.899858,169.148010 28.911293,189.049454 
	C29.049082,428.873840 28.995502,668.698364 29.042578,908.522827 
	C29.043318,912.290527 29.332809,916.129395 30.081591,919.814331 
	C35.140923,944.712830 46.312737,966.444824 64.152428,984.650391 
	C75.877609,996.616089 89.569717,1005.768188 104.883438,1012.388916 
	C117.327065,1017.768738 130.392654,1021.863831 143.959641,1021.872742 
	C407.616425,1022.045837 671.273376,1022.014648 934.930237,1021.915466 
	C940.813293,1021.913269 946.796509,1021.098999 952.561646,1019.863892 
	C982.808105,1013.384460 1007.588135,997.892822 1026.769897,973.651306 
	C1045.563232,949.900757 1053.896118,922.392700 1053.922485,892.480408 
	C1054.077759,716.487061 1053.998657,540.493469 1053.998535,363.500000 
z"/>
<path fill="#595959" opacity="1.000000" stroke="none" 
	d="
M1053.998535,364.000000 
	C1053.998657,540.493469 1054.077759,716.487061 1053.922485,892.480408 
	C1053.896118,922.392700 1045.563232,949.900757 1026.769897,973.651306 
	C1007.588135,997.892822 982.808105,1013.384460 952.561646,1019.863892 
	C946.796509,1021.098999 940.813293,1021.913269 934.930237,1021.915466 
	C671.273376,1022.014648 407.616425,1022.045837 143.959641,1021.872742 
	C130.392654,1021.863831 117.327065,1017.768738 104.883438,1012.388916 
	C89.569717,1005.768188 75.877609,996.616089 64.152428,984.650391 
	C46.312737,966.444824 35.140923,944.712830 30.081591,919.814331 
	C29.332809,916.129395 29.043318,912.290527 29.042578,908.522827 
	C28.995502,668.698364 29.049082,428.873840 28.911293,189.049454 
	C28.899858,169.148010 34.915989,151.075363 44.670124,134.411865 
	C50.773384,123.985374 58.566639,114.159485 67.189011,105.677872 
	C84.646194,88.505661 105.989616,77.708549 130.112442,73.174164 
	C138.674515,71.564751 147.559586,71.089119 156.297623,71.085571 
	C414.621368,70.980522 672.945129,70.945335 931.268860,71.085129 
	C957.171814,71.099144 980.465454,80.068878 1001.420105,95.016602 
	C1018.862976,107.459221 1032.216309,123.574814 1041.307373,142.908340 
	C1047.936523,157.005844 1052.807129,171.858154 1052.938843,187.650970 
	C1053.427734,246.266190 1053.666138,304.883484 1053.998535,364.000000 
M95.383591,309.883606 
	C89.341393,316.316681 82.538551,322.196838 77.389931,329.279510 
	C56.180485,358.456146 59.377544,397.255524 84.940392,422.938263 
	C112.094887,450.220123 139.581223,477.171326 166.829666,504.360107 
	C208.708618,546.147278 250.574631,587.947998 292.301575,629.886780 
	C305.110474,642.760742 320.337616,649.882507 338.362366,651.255859 
	C340.913666,651.450195 343.457275,651.746094 346.004425,651.994995 
	C346.458344,652.658203 346.912231,653.321411 347.366119,653.984680 
	C345.649445,655.013428 343.634064,655.742737 342.259308,657.114258 
	C298.841980,700.426880 255.474258,743.789307 212.148605,787.193665 
	C208.982651,790.365356 205.945053,793.730347 203.304367,797.339539 
	C201.322357,800.048523 199.194000,801.097351 195.831802,801.068054 
	C178.001541,800.912415 160.169205,800.987915 142.337585,800.997131 
	C100.065369,801.018921 68.011002,833.094299 67.995850,875.381348 
	C67.992142,885.713684 67.722916,896.055481 68.078545,906.375549 
	C68.381050,915.154297 68.489861,924.099915 70.275963,932.638794 
	C77.091080,965.219727 106.214348,988.980164 139.541397,989.014343 
	C279.194458,989.157593 418.847839,989.132263 558.500916,989.015869 
	C580.453064,988.997559 598.550598,979.860413 612.668091,963.241333 
	C615.649109,959.732117 618.561523,958.675110 622.857361,958.679321 
	C713.181946,958.767456 803.507874,958.969055 893.829773,958.469849 
	C905.425720,958.405762 914.582825,960.424927 921.422668,970.027710 
	C922.471069,971.499756 923.974182,972.651367 925.285461,973.932312 
	C940.524841,988.819153 964.502258,989.089355 979.900818,974.423218 
	C985.812073,968.793091 991.604309,963.024170 997.216064,957.096252 
	C1011.795105,941.695496 1011.432678,918.099609 996.494385,903.000122 
	C990.048157,896.484375 983.711609,889.844116 976.983704,883.630188 
	C973.850281,880.736267 972.917969,877.701782 972.930969,873.590576 
	C973.226624,780.107422 973.430969,686.624023 973.585938,593.140503 
	C973.626343,568.795776 956.719238,551.997681 932.425903,551.996643 
	C854.100098,551.993347 775.774292,551.995361 697.448486,551.995361 
	C695.575500,551.995361 693.702515,551.995361 692.695068,551.995361 
	C738.929504,505.760498 785.137817,459.551758 831.278076,413.411041 
	C831.378357,413.622864 831.824646,414.504669 832.219788,415.408813 
	C843.917847,442.173065 864.281738,457.945007 893.301575,460.388184 
	C911.665222,461.934204 930.336548,461.758759 948.741272,460.489960 
	C989.633362,457.670929 1015.650635,421.907135 1015.248779,387.405579 
	C1014.431824,317.255188 1015.037109,247.088531 1014.940247,176.928741 
	C1014.932739,171.466507 1014.462341,165.922028 1013.454041,160.557312 
	C1006.122131,121.546967 961.103943,98.861023 932.309937,98.890137 
	C733.995911,99.090691 535.681519,99.003716 337.367218,98.983452 
	C316.806519,98.981346 299.294098,106.289009 284.801422,120.748108 
	C221.802902,183.600647 158.851791,246.500687 95.383591,309.883606 
z"/>
<path fill="#5CFB42" opacity="1.000000" stroke="none" 
	d="
M95.633530,309.633545 
	C158.851791,246.500687 221.802902,183.600647 284.801422,120.748108 
	C299.294098,106.289009 316.806519,98.981346 337.367218,98.983452 
	C535.681519,99.003716 733.995911,99.090691 932.309937,98.890137 
	C961.103943,98.861023 1006.122131,121.546967 1013.454041,160.557312 
	C1014.462341,165.922028 1014.932739,171.466507 1014.940247,176.928741 
	C1015.037109,247.088531 1014.431824,317.255188 1015.248779,387.405579 
	C1015.650635,421.907135 989.633362,457.670929 948.741272,460.489960 
	C930.336548,461.758759 911.665222,461.934204 893.301575,460.388184 
	C864.281738,457.945007 843.917847,442.173065 832.219788,415.408813 
	C831.824646,414.504669 831.378357,413.622864 831.278076,413.411041 
	C785.137817,459.551758 738.929504,505.760498 692.695068,551.995361 
	C693.702515,551.995361 695.575500,551.995361 697.448486,551.995361 
	C775.774292,551.995361 854.100098,551.993347 932.425903,551.996643 
	C956.719238,551.997681 973.626343,568.795776 973.585938,593.140503 
	C973.430969,686.624023 973.226624,780.107422 972.930969,873.590576 
	C972.917969,877.701782 973.850281,880.736267 976.983704,883.630188 
	C983.711609,889.844116 990.048157,896.484375 996.494385,903.000122 
	C1011.432678,918.099609 1011.795105,941.695496 997.216064,957.096252 
	C991.604309,963.024170 985.812073,968.793091 979.900818,974.423218 
	C964.502258,989.089355 940.524841,988.819153 925.285461,973.932312 
	C923.974182,972.651367 922.471069,971.499756 921.422668,970.027710 
	C914.582825,960.424927 905.425720,958.405762 893.829773,958.469849 
	C803.507874,958.969055 713.181946,958.767456 622.857361,958.679321 
	C618.561523,958.675110 615.649109,959.732117 612.668091,963.241333 
	C598.550598,979.860413 580.453064,988.997559 558.500916,989.015869 
	C418.847839,989.132263 279.194458,989.157593 139.541397,989.014343 
	C106.214348,988.980164 77.091080,965.219727 70.275963,932.638794 
	C68.489861,924.099915 68.381050,915.154297 68.078545,906.375549 
	C67.722916,896.055481 67.992142,885.713684 67.995850,875.381348 
	C68.011002,833.094299 100.065369,801.018921 142.337585,800.997131 
	C160.169205,800.987915 178.001541,800.912415 195.831802,801.068054 
	C199.194000,801.097351 201.322357,800.048523 203.304367,797.339539 
	C205.945053,793.730347 208.982651,790.365356 212.148605,787.193665 
	C255.474258,743.789307 298.841980,700.426880 342.259308,657.114258 
	C343.634064,655.742737 345.649445,655.013428 347.366119,653.984680 
	C346.912231,653.321411 346.458344,652.658203 346.004425,651.994995 
	C343.457275,651.746094 340.913666,651.450195 338.362366,651.255859 
	C320.337616,649.882507 305.110474,642.760742 292.301575,629.886780 
	C250.574631,587.947998 208.708618,546.147278 166.829666,504.360107 
	C139.581223,477.171326 112.094887,450.220123 84.940392,422.938263 
	C59.377544,397.255524 56.180485,358.456146 77.389931,329.279510 
	C82.538551,322.196838 89.341393,316.316681 95.633530,309.633545 
M642.500244,947.765198 
	C731.838989,947.765259 821.177795,947.793945 910.516357,947.675293 
	C914.709961,947.669678 917.698669,948.779724 920.502563,951.888611 
	C924.849243,956.708252 929.546814,961.224731 934.253052,965.704224 
	C946.427246,977.291626 964.037415,977.164673 976.018677,965.461975 
	C980.310242,961.270203 984.521179,956.995544 988.750732,952.740723 
	C1001.986877,939.425659 1001.997070,921.880554 988.703674,908.398865 
	C980.513245,900.092468 972.329529,891.773132 963.909973,883.702393 
	C961.028625,880.940369 959.907104,878.127380 959.912415,874.123718 
	C960.024536,789.798218 960.000793,705.472473 959.991943,621.146790 
	C959.991028,612.315613 960.011780,603.482727 959.856079,594.653625 
	C959.528931,576.100098 946.204041,563.010864 927.696472,563.008240 
	C845.537231,562.996643 763.378052,562.998901 681.218811,563.023315 
	C678.731384,563.024048 676.008667,562.736816 673.809692,563.617615 
	C670.142090,565.086731 668.080505,563.700928 665.623413,561.222290 
	C646.147644,541.575745 626.887390,521.696167 606.872375,502.610229 
	C592.584534,488.985504 575.165466,481.140503 555.094727,481.067200 
	C502.766846,480.876099 450.437775,480.977234 398.109314,481.065369 
	C394.897064,481.070770 392.610596,480.228546 390.295349,477.903015 
	C355.257263,442.709320 320.116302,407.618103 285.007629,372.494659 
	C283.876099,371.362671 282.831482,370.143738 281.764740,368.985291 
	C282.377106,368.255280 282.668671,367.849030 283.017548,367.500092 
	C313.888275,336.623260 344.723785,305.710846 375.745239,274.986084 
	C377.446716,273.300903 380.697144,272.445404 383.229126,272.440186 
	C450.222778,272.302277 517.216919,272.413330 584.210632,272.287201 
	C616.074524,272.227203 640.565613,247.612259 640.758911,215.815308 
	C640.848022,201.150513 640.821411,186.484558 640.767456,171.819427 
	C640.646057,138.847961 615.703796,114.010529 582.724182,114.006332 
	C502.064819,113.996071 421.405396,113.952339 340.746124,114.041336 
	C322.404633,114.061569 306.444031,120.748276 293.504608,133.602020 
	C230.372009,196.316635 167.408752,259.201721 104.404648,322.045654 
	C100.632454,325.808258 96.507149,329.364227 93.427650,333.649780 
	C75.150017,359.085541 77.706139,388.525726 99.868202,410.692841 
	C169.032684,479.873047 238.315369,548.935608 307.295380,618.299255 
	C321.588013,632.671387 338.331879,639.426880 358.328674,639.394287 
	C410.490479,639.309143 462.652557,639.400879 514.814331,639.295105 
	C518.627747,639.287354 521.346313,640.433289 524.024231,643.128601 
	C549.747742,669.018616 575.589355,694.791382 601.390381,720.604431 
	C602.556396,721.770996 603.658325,723.001587 606.037537,725.525879 
	C604.178040,726.710938 602.220764,727.524170 600.831726,728.907898 
	C573.086365,756.547363 545.355835,784.202148 517.786987,812.017151 
	C514.813599,815.017090 511.877960,816.084351 507.753662,816.081116 
	C385.764801,815.984680 263.775848,815.995300 141.786911,816.007996 
	C108.847282,816.011414 84.021706,840.946289 84.004227,873.982056 
	C83.996559,888.480774 83.964874,902.979553 84.011185,917.478149 
	C84.110573,948.593811 109.121185,973.985229 140.204208,974.006042 
	C279.358185,974.099243 418.512268,974.069153 557.666321,974.018555 
	C574.637024,974.012329 588.632385,967.177734 599.866394,954.545532 
	C602.411194,951.683777 604.877502,948.742554 607.575012,946.032104 
	C608.334656,945.268860 610.077332,944.546936 610.878845,944.904541 
	C620.791504,949.328796 631.259460,947.279907 642.500244,947.765198 
M969.173950,161.379684 
	C960.823975,148.782104 949.616821,141.024918 934.026917,141.017822 
	C860.363892,140.984375 786.700867,140.960037 713.037903,141.029266 
	C690.815613,141.050156 673.157837,158.887390 673.010376,181.150787 
	C672.962891,188.316788 673.001221,195.483368 673.002563,202.649673 
	C673.007202,228.152405 690.050781,245.198318 715.657837,245.239410 
	C738.656616,245.276337 761.655518,245.248047 784.654358,245.248520 
	C786.413086,245.248550 788.171875,245.248520 791.214539,245.248520 
	C789.246216,247.405426 788.221802,248.613617 787.108582,249.733459 
	C781.586365,255.288528 776.041809,260.821350 770.503174,266.360107 
	C725.133240,311.731140 679.731567,357.070343 634.408081,402.487579 
	C615.922668,421.011139 615.980713,449.343781 634.378723,467.970947 
	C640.351440,474.017975 646.378418,480.011749 652.406494,486.003693 
	C671.620789,505.102936 700.389832,505.102386 719.486755,486.007233 
	C769.219788,436.278809 818.948364,386.545990 868.686584,336.822784 
	C869.890686,335.619080 871.186890,334.507355 873.002441,332.834717 
	C873.002441,351.754456 872.986450,369.731018 873.006714,387.707520 
	C873.029358,407.752258 884.525574,423.455994 904.087646,427.528900 
	C913.870239,429.565674 924.275452,428.879822 934.402100,428.943329 
	C959.827515,429.102753 977.127502,411.809998 977.140686,386.390228 
	C977.174927,320.226868 977.099548,254.063400 977.211792,187.900223 
	C977.227905,178.393188 974.883423,169.809082 969.173950,161.379684 
M571.893982,427.393921 
	C616.085144,383.202881 660.276306,339.011810 704.467468,294.820770 
	C704.238037,294.428375 704.008606,294.035950 703.779114,293.643555 
	C702.142639,293.643555 700.506104,293.643555 698.869568,293.643524 
	C596.587158,293.643433 494.304718,293.658295 392.022369,293.581451 
	C388.431335,293.578766 385.823486,294.550507 383.246948,297.147675 
	C359.665619,320.917969 335.947479,344.552551 312.283081,368.240509 
	C311.151337,369.373383 310.148956,370.635468 309.065521,371.860901 
	C309.712463,372.705505 310.057404,373.278107 310.516022,373.737122 
	C339.833954,403.079681 369.133087,432.441315 398.572571,461.661469 
	C399.999725,463.078003 402.665009,463.892273 404.756989,463.898621 
	C446.902313,464.026398 489.048279,464.040283 531.193298,463.871552 
	C533.524536,463.862244 536.405029,462.646393 538.086121,461.017914 
	C549.331848,450.124237 560.321289,438.966064 571.893982,427.393921 
M488.502167,754.002014 
	C473.164124,769.340332 457.826111,784.678589 441.508179,800.996765 
	C444.528473,800.996765 445.984955,800.996765 447.441437,800.996765 
	C465.760498,800.996704 484.080444,800.901367 502.397827,801.076965 
	C506.066803,801.112122 508.581848,799.902893 511.111511,797.354919 
	C533.639160,774.663635 556.285095,752.089783 578.883606,729.468750 
	C580.131897,728.219299 581.268005,726.857727 582.195679,725.835571 
	C571.131531,714.813110 560.442017,704.163818 549.362732,693.126221 
	C529.440063,713.053894 509.221039,733.277893 488.502167,754.002014 
z"/>
<path fill="#000000" opacity="1.000000" stroke="none" 
	d="
M642.000366,947.765198 
	C631.259460,947.279907 620.791504,949.328796 610.878845,944.904541 
	C610.077332,944.546936 608.334656,945.268860 607.575012,946.032104 
	C604.877502,948.742554 602.411194,951.683777 599.866394,954.545532 
	C588.632385,967.177734 574.637024,974.012329 557.666321,974.018555 
	C418.512268,974.069153 279.358185,974.099243 140.204208,974.006042 
	C109.121185,973.985229 84.110573,948.593811 84.011185,917.478149 
	C83.964874,902.979553 83.996559,888.480774 84.004227,873.982056 
	C84.021706,840.946289 108.847282,816.011414 141.786911,816.007996 
	C263.775848,815.995300 385.764801,815.984680 507.753662,816.081116 
	C511.877960,816.084351 514.813599,815.017090 517.786987,812.017151 
	C545.355835,784.202148 573.086365,756.547363 600.831726,728.907898 
	C602.220764,727.524170 604.178040,726.710938 606.037537,725.525879 
	C603.658325,723.001587 602.556396,721.770996 601.390381,720.604431 
	C575.589355,694.791382 549.747742,669.018616 524.024231,643.128601 
	C521.346313,640.433289 518.627747,639.287354 514.814331,639.295105 
	C462.652557,639.400879 410.490479,639.309143 358.328674,639.394287 
	C338.331879,639.426880 321.588013,632.671387 307.295380,618.299255 
	C238.315369,548.935608 169.032684,479.873047 99.868202,410.692841 
	C77.706139,388.525726 75.150017,359.085541 93.427650,333.649780 
	C96.507149,329.364227 100.632454,325.808258 104.404648,322.045654 
	C167.408752,259.201721 230.372009,196.316635 293.504608,133.602020 
	C306.444031,120.748276 322.404633,114.061569 340.746124,114.041336 
	C421.405396,113.952339 502.064819,113.996071 582.724182,114.006332 
	C615.703796,114.010529 640.646057,138.847961 640.767456,171.819427 
	C640.821411,186.484558 640.848022,201.150513 640.758911,215.815308 
	C640.565613,247.612259 616.074524,272.227203 584.210632,272.287201 
	C517.216919,272.413330 450.222778,272.302277 383.229126,272.440186 
	C380.697144,272.445404 377.446716,273.300903 375.745239,274.986084 
	C344.723785,305.710846 313.888275,336.623260 283.017548,367.500092 
	C282.668671,367.849030 282.377106,368.255280 281.764740,368.985291 
	C282.831482,370.143738 283.876099,371.362671 285.007629,372.494659 
	C320.116302,407.618103 355.257263,442.709320 390.295349,477.903015 
	C392.610596,480.228546 394.897064,481.070770 398.109314,481.065369 
	C450.437775,480.977234 502.766846,480.876099 555.094727,481.067200 
	C575.165466,481.140503 592.584534,488.985504 606.872375,502.610229 
	C626.887390,521.696167 646.147644,541.575745 665.623413,561.222290 
	C668.080505,563.700928 670.142090,565.086731 673.809692,563.617615 
	C676.008667,562.736816 678.731384,563.024048 681.218811,563.023315 
	C763.378052,562.998901 845.537231,562.996643 927.696472,563.008240 
	C946.204041,563.010864 959.528931,576.100098 959.856079,594.653625 
	C960.011780,603.482727 959.991028,612.315613 959.991943,621.146790 
	C960.000793,705.472473 960.024536,789.798218 959.912415,874.123718 
	C959.907104,878.127380 961.028625,880.940369 963.909973,883.702393 
	C972.329529,891.773132 980.513245,900.092468 988.703674,908.398865 
	C1001.997070,921.880554 1001.986877,939.425659 988.750732,952.740723 
	C984.521179,956.995544 980.310242,961.270203 976.018677,965.461975 
	C964.037415,977.164673 946.427246,977.291626 934.253052,965.704224 
	C929.546814,961.224731 924.849243,956.708252 920.502563,951.888611 
	C917.698669,948.779724 914.709961,947.669678 910.516357,947.675293 
	C821.177795,947.793945 731.838989,947.765259 642.000366,947.765198 
M729.500000,868.006226 
	C764.836670,868.006226 800.173340,868.006226 836.731201,868.006226 
	C829.178467,860.531738 822.604370,854.146301 816.165405,847.627380 
	C804.168579,835.481750 804.065735,817.400330 815.904602,804.989868 
	C819.699463,801.011841 823.651245,797.182983 827.552368,793.307068 
	C841.708618,779.242310 859.364014,779.204895 873.509888,793.178040 
	C875.546570,795.189819 877.666138,797.117859 880.246826,799.556641 
	C880.246826,746.687073 880.246826,694.850037 880.246826,643.036438 
	C836.000793,643.036438 792.209900,643.036438 747.487244,643.036438 
	C760.661011,656.196411 773.084045,668.729370 785.643860,681.123718 
	C803.697876,698.939758 812.370056,741.731567 785.460632,768.165344 
	C753.364197,799.694519 721.768005,831.732849 689.933716,863.529236 
	C688.702454,864.759155 687.251770,865.769348 685.903381,866.881958 
	C686.162537,867.256714 686.421692,867.631470 686.680908,868.006226 
	C700.620605,868.006226 714.560303,868.006226 729.500000,868.006226 
z"/>
<path fill="#000100" opacity="1.000000" stroke="none" 
	d="
M969.379211,161.679565 
	C974.883423,169.809082 977.227905,178.393188 977.211792,187.900223 
	C977.099548,254.063400 977.174927,320.226868 977.140686,386.390228 
	C977.127502,411.809998 959.827515,429.102753 934.402100,428.943329 
	C924.275452,428.879822 913.870239,429.565674 904.087646,427.528900 
	C884.525574,423.455994 873.029358,407.752258 873.006714,387.707520 
	C872.986450,369.731018 873.002441,351.754456 873.002441,332.834717 
	C871.186890,334.507355 869.890686,335.619080 868.686584,336.822784 
	C818.948364,386.545990 769.219788,436.278809 719.486755,486.007233 
	C700.389832,505.102386 671.620789,505.102936 652.406494,486.003693 
	C646.378418,480.011749 640.351440,474.017975 634.378723,467.970947 
	C615.980713,449.343781 615.922668,421.011139 634.408081,402.487579 
	C679.731567,357.070343 725.133240,311.731140 770.503174,266.360107 
	C776.041809,260.821350 781.586365,255.288528 787.108582,249.733459 
	C788.221802,248.613617 789.246216,247.405426 791.214539,245.248520 
	C788.171875,245.248520 786.413086,245.248550 784.654358,245.248520 
	C761.655518,245.248047 738.656616,245.276337 715.657837,245.239410 
	C690.050781,245.198318 673.007202,228.152405 673.002563,202.649673 
	C673.001221,195.483368 672.962891,188.316788 673.010376,181.150787 
	C673.157837,158.887390 690.815613,141.050156 713.037903,141.029266 
	C786.700867,140.960037 860.363892,140.984375 934.026917,141.017822 
	C949.616821,141.024918 960.823975,148.782104 969.379211,161.679565 
z"/>
<path fill="#595959" opacity="1.000000" stroke="none" 
	d="
M571.643921,427.643829 
	C560.321289,438.966064 549.331848,450.124237 538.086121,461.017914 
	C536.405029,462.646393 533.524536,463.862244 531.193298,463.871552 
	C489.048279,464.040283 446.902313,464.026398 404.756989,463.898621 
	C402.665009,463.892273 399.999725,463.078003 398.572571,461.661469 
	C369.133087,432.441315 339.833954,403.079681 310.516022,373.737122 
	C310.057404,373.278107 309.712463,372.705505 309.065521,371.860901 
	C310.148956,370.635468 311.151337,369.373383 312.283081,368.240509 
	C335.947479,344.552551 359.665619,320.917969 383.246948,297.147675 
	C385.823486,294.550507 388.431335,293.578766 392.022369,293.581451 
	C494.304718,293.658295 596.587158,293.643433 698.869568,293.643524 
	C700.506104,293.643555 702.142639,293.643555 703.779114,293.643555 
	C704.008606,294.035950 704.238037,294.428375 704.467468,294.820770 
	C660.276306,339.011810 616.085144,383.202881 571.643921,427.643829 
z"/>
<path fill="#595A59" opacity="1.000000" stroke="none" 
	d="
M488.752106,753.751953 
	C509.221039,733.277893 529.440063,713.053894 549.362732,693.126221 
	C560.442017,704.163818 571.131531,714.813110 582.195679,725.835571 
	C581.268005,726.857727 580.131897,728.219299 578.883606,729.468750 
	C556.285095,752.089783 533.639160,774.663635 511.111511,797.354919 
	C508.581848,799.902893 506.066803,801.112122 502.397827,801.076965 
	C484.080444,800.901367 465.760498,800.996704 447.441437,800.996765 
	C445.984955,800.996765 444.528473,800.996765 441.508179,800.996765 
	C457.826111,784.678589 473.164124,769.340332 488.752106,753.751953 
z"/>
<path fill="#5BF941" opacity="1.000000" stroke="none" 
	d="
M729.000000,868.006226 
	C714.560303,868.006226 700.620605,868.006226 686.680908,868.006226 
	C686.421692,867.631470 686.162537,867.256714 685.903381,866.881958 
	C687.251770,865.769348 688.702454,864.759155 689.933716,863.529236 
	C721.768005,831.732849 753.364197,799.694519 785.460632,768.165344 
	C812.370056,741.731567 803.697876,698.939758 785.643860,681.123718 
	C773.084045,668.729370 760.661011,656.196411 747.487244,643.036438 
	C792.209900,643.036438 836.000793,643.036438 880.246826,643.036438 
	C880.246826,694.850037 880.246826,746.687073 880.246826,799.556641 
	C877.666138,797.117859 875.546570,795.189819 873.509888,793.178040 
	C859.364014,779.204895 841.708618,779.242310 827.552368,793.307068 
	C823.651245,797.182983 819.699463,801.011841 815.904602,804.989868 
	C804.065735,817.400330 804.168579,835.481750 816.165405,847.627380 
	C822.604370,854.146301 829.178467,860.531738 836.731201,868.006226 
	C800.173340,868.006226 764.836670,868.006226 729.000000,868.006226 
M867.417542,700.500061 
	C867.416687,687.834900 867.295166,675.167969 867.486023,662.505737 
	C867.545837,658.535522 866.538269,656.956299 862.215149,656.987061 
	C836.720764,657.168762 811.224487,657.068970 785.728821,657.094116 
	C784.552673,657.095276 783.376831,657.385559 781.552185,657.627014 
	C782.894714,659.059204 783.605469,659.984802 784.476135,660.721436 
	C800.051636,673.899475 808.307922,691.115234 812.702759,710.687622 
	C818.760010,737.663940 812.899902,761.291687 793.388367,781.046692 
	C769.383728,805.350891 745.110718,829.390076 720.964905,853.554932 
	C719.785400,854.735291 718.713501,856.023071 717.255127,857.631836 
	C748.079163,857.631836 777.953186,857.631836 807.827209,857.631836 
	C808.157593,857.191284 808.487915,856.750732 808.818298,856.310181 
	C807.129639,855.007263 805.257751,853.883606 803.780579,852.373718 
	C788.621704,836.879761 788.711670,812.929504 803.937439,797.564453 
	C809.215515,792.238037 814.564392,786.981567 819.834473,781.647278 
	C830.083679,771.272888 842.407104,768.066040 856.473877,771.096008 
	C859.840454,771.821106 863.108337,773.004822 867.418518,774.270325 
	C867.418518,749.646179 867.418518,725.573120 867.417542,700.500061 
z"/>
<path fill="#595B59" opacity="1.000000" stroke="none" 
	d="
M867.418030,701.000122 
	C867.418518,725.573120 867.418518,749.646179 867.418518,774.270325 
	C863.108337,773.004822 859.840454,771.821106 856.473877,771.096008 
	C842.407104,768.066040 830.083679,771.272888 819.834473,781.647278 
	C814.564392,786.981567 809.215515,792.238037 803.937439,797.564453 
	C788.711670,812.929504 788.621704,836.879761 803.780579,852.373718 
	C805.257751,853.883606 807.129639,855.007263 808.818298,856.310181 
	C808.487915,856.750732 808.157593,857.191284 807.827209,857.631836 
	C777.953186,857.631836 748.079163,857.631836 717.255127,857.631836 
	C718.713501,856.023071 719.785400,854.735291 720.964905,853.554932 
	C745.110718,829.390076 769.383728,805.350891 793.388367,781.046692 
	C812.899902,761.291687 818.760010,737.663940 812.702759,710.687622 
	C808.307922,691.115234 800.051636,673.899475 784.476135,660.721436 
	C783.605469,659.984802 782.894714,659.059204 781.552185,657.627014 
	C783.376831,657.385559 784.552673,657.095276 785.728821,657.094116 
	C811.224487,657.068970 836.720764,657.168762 862.215149,656.987061 
	C866.538269,656.956299 867.545837,658.535522 867.486023,662.505737 
	C867.295166,675.167969 867.416687,687.834900 867.418030,701.000122 
z"/>
</svg>