<svg version="1.1" id="Layer_1" xmlns="http://www.w3.org/2000/svg" xmlns:xlink="http://www.w3.org/1999/xlink" x="0px" y="0px"
	 width="100%" viewBox="0 0 752 752" enable-background="new 0 0 752 752" xml:space="preserve">
<path fill="#000000" opacity="0.000000" stroke="none"
	d="
M408.000000,753.000000 
	C272.000000,753.000000 136.500000,753.000000 1.000000,753.000000 
	C1.000000,502.333344 1.000000,251.666672 1.000000,1.000000 
	C251.666672,1.000000 502.333344,1.000000 753.000000,1.000000 
	C753.000000,251.666672 753.000000,502.333344 753.000000,753.000000 
	C638.166687,753.000000 523.333313,753.000000 408.000000,753.000000 
M312.362885,442.890289 
	C315.360901,445.497192 318.193176,448.329559 321.383514,450.674774 
	C343.667419,467.055695 368.778992,471.852356 395.694580,467.854065 
	C412.721344,465.324738 427.563660,457.922791 439.313263,445.086151 
	C442.715179,441.369476 446.540894,439.901428 451.511322,439.936798 
	C472.507904,440.086273 493.506134,440.004761 514.503784,439.998322 
	C526.627930,439.994629 534.661377,432.529907 535.660339,419.999908 
	C533.822815,419.999908 532.008728,419.999939 530.194641,419.999908 
	C511.530060,419.999786 492.862549,420.166412 474.203888,419.833435 
	C471.139526,419.778748 467.236023,418.311890 465.272217,416.112183 
	C462.142426,412.606506 462.801910,407.760132 465.168121,403.817932 
	C467.341797,400.196533 470.440125,397.859222 475.298462,397.912170 
	C494.793945,398.124725 514.294128,398.104065 533.789978,397.907684 
	C537.471375,397.870575 541.302246,397.094482 544.781677,395.862000 
	C551.762329,393.389313 556.503357,385.275482 555.461914,377.999969 
	C544.729065,377.999969 533.927429,378.000061 523.125793,377.999939 
	C508.627441,377.999786 494.128876,378.040741 479.630798,377.980591 
	C473.132202,377.953613 467.959229,372.394440 468.111511,365.825928 
	C468.260010,359.423096 472.081696,356.004913 479.120453,356.003906 
	C504.284271,356.000336 529.448303,356.047272 554.611755,355.956207 
	C558.540894,355.941986 562.514282,355.577698 566.385986,354.906738 
	C574.341003,353.528259 581.443542,344.028656 580.463562,335.999939 
	C578.708130,335.999939 576.900330,335.999939 575.092529,335.999939 
	C539.929810,335.999908 504.767120,335.985016 469.604431,336.013428 
	C463.260651,336.018555 458.379883,334.057831 454.916992,328.156982 
	C449.909546,319.624146 443.459961,312.291168 435.637848,305.956512 
	C413.732422,288.216492 388.763824,281.670380 361.360840,286.246674 
	C334.864655,290.671509 313.729553,304.542633 299.425262,327.523163 
	C295.436371,333.931580 290.484314,336.009338 283.691833,336.006531 
	C248.862427,335.992218 214.033035,335.999939 179.203629,335.999939 
	C177.238373,335.999939 175.273117,335.999939 172.783539,335.999939 
	C173.159668,338.137909 173.351486,339.720978 173.723419,341.260559 
	C175.799530,349.854858 184.744873,356.015656 195.491928,356.008270 
	C222.155579,355.989990 248.819321,356.032379 275.482819,355.969635 
	C279.423706,355.960358 282.572449,356.825531 284.356293,360.764923 
	C287.697754,368.144012 283.253143,378.399994 273.282349,378.164642 
	C250.963959,377.637909 228.624603,377.999908 206.293793,377.999969 
	C203.661713,377.999969 201.029633,377.999969 197.528015,377.999969 
	C198.197983,380.956299 198.374878,383.420807 199.307190,385.555359 
	C203.079422,394.192169 210.015717,398.000916 219.256897,398.000183 
	C239.087997,397.998627 258.919098,397.987122 278.750183,398.007507 
	C285.274170,398.014191 290.754364,403.587921 290.951752,410.322571 
	C291.125183,416.241058 286.619843,419.989777 279.251007,419.995056 
	C260.586456,420.008453 241.921875,419.993317 223.257324,420.009949 
	C221.537308,420.011475 219.817429,420.158447 218.116241,420.237000 
	C219.383972,434.160858 230.247620,440.405670 241.560196,440.137634 
	C262.046387,439.652313 282.553223,439.907898 303.049042,440.103607 
	C305.990448,440.131683 308.918640,441.548706 312.362885,442.890289 
z"/>
<path fill="#41D840" opacity="1.000000" stroke="none"
	d="
M312.107910,442.606628 
	C308.918640,441.548706 305.990448,440.131683 303.049042,440.103607 
	C282.553223,439.907898 262.046387,439.652313 241.560196,440.137634 
	C230.247620,440.405670 219.383972,434.160858 218.116241,420.237000 
	C219.817429,420.158447 221.537308,420.011475 223.257324,420.009949 
	C241.921875,419.993317 260.586456,420.008453 279.251007,419.995056 
	C286.619843,419.989777 291.125183,416.241058 290.951752,410.322571 
	C290.754364,403.587921 285.274170,398.014191 278.750183,398.007507 
	C258.919098,397.987122 239.087997,397.998627 219.256897,398.000183 
	C210.015717,398.000916 203.079422,394.192169 199.307190,385.555359 
	C198.374878,383.420807 198.197983,380.956299 197.528015,377.999969 
	C201.029633,377.999969 203.661713,377.999969 206.293793,377.999969 
	C228.624603,377.999908 250.963959,377.637909 273.282349,378.164642 
	C283.253143,378.399994 287.697754,368.144012 284.356293,360.764923 
	C282.572449,356.825531 279.423706,355.960358 275.482819,355.969635 
	C248.819321,356.032379 222.155579,355.989990 195.491928,356.008270 
	C184.744873,356.015656 175.799530,349.854858 173.723419,341.260559 
	C173.351486,339.720978 173.159668,338.137909 172.783539,335.999939 
	C175.273117,335.999939 177.238373,335.999939 179.203629,335.999939 
	C214.033035,335.999939 248.862427,335.992218 283.691833,336.006531 
	C290.484314,336.009338 295.436371,333.931580 299.425262,327.523163 
	C313.729553,304.542633 334.864655,290.671509 361.360840,286.246674 
	C388.763824,281.670380 413.732422,288.216492 435.637848,305.956512 
	C443.459961,312.291168 449.909546,319.624146 454.916992,328.156982 
	C458.379883,334.057831 463.260651,336.018555 469.604431,336.013428 
	C504.767120,335.985016 539.929810,335.999908 575.092529,335.999939 
	C576.900330,335.999939 578.708130,335.999939 580.463562,335.999939 
	C581.443542,344.028656 574.341003,353.528259 566.385986,354.906738 
	C562.514282,355.577698 558.540894,355.941986 554.611755,355.956207 
	C529.448303,356.047272 504.284271,356.000336 479.120453,356.003906 
	C472.081696,356.004913 468.260010,359.423096 468.111511,365.825928 
	C467.959229,372.394440 473.132202,377.953613 479.630798,377.980591 
	C494.128876,378.040741 508.627441,377.999786 523.125793,377.999939 
	C533.927429,378.000061 544.729065,377.999969 555.461914,377.999969 
	C556.503357,385.275482 551.762329,393.389313 544.781677,395.862000 
	C541.302246,397.094482 537.471375,397.870575 533.789978,397.907684 
	C514.294128,398.104065 494.793945,398.124725 475.298462,397.912170 
	C470.440125,397.859222 467.341797,400.196533 465.168121,403.817932 
	C462.801910,407.760132 462.142426,412.606506 465.272217,416.112183 
	C467.236023,418.311890 471.139526,419.778748 474.203888,419.833435 
	C492.862549,420.166412 511.530060,419.999786 530.194641,419.999908 
	C532.008728,419.999939 533.822815,419.999908 535.660339,419.999908 
	C534.661377,432.529907 526.627930,439.994629 514.503784,439.998322 
	C493.506134,440.004761 472.507904,440.086273 451.511322,439.936798 
	C446.540894,439.901428 442.715179,441.369476 439.313263,445.086151 
	C427.563660,457.922791 412.721344,465.324738 395.694580,467.854065 
	C368.778992,471.852356 343.667419,467.055695 321.383514,450.674774 
	C318.193176,448.329559 315.360901,445.497192 312.107910,442.606628 
M328.905792,413.182617 
	C326.559326,425.377502 335.912354,435.773071 348.242401,436.955780 
	C357.163757,437.811554 363.543243,431.733521 370.520538,427.767242 
	C375.267792,425.068665 378.956482,424.691223 383.506073,427.862518 
	C387.641937,430.745483 392.180389,433.157898 396.783783,435.242432 
	C408.719330,440.647278 423.392365,432.733093 424.816162,419.717987 
	C425.392487,414.450104 424.260559,408.865875 423.170593,403.577179 
	C421.747955,396.674316 420.696136,390.338196 427.766541,385.584961 
	C431.014191,383.401672 433.914948,380.605560 436.647919,377.773651 
	C442.291473,371.925781 444.705444,364.907959 441.846954,357.073883 
	C439.244385,349.941162 434.244324,344.687286 426.510040,343.104919 
	C421.233490,342.025391 415.768890,341.885681 410.465240,340.908508 
	C407.933929,340.442139 404.491058,339.684509 403.362671,337.873779 
	C400.539093,333.342926 398.795746,328.137817 396.629669,323.198547 
	C390.218933,308.580627 371.635803,305.062714 362.232788,316.603363 
	C357.688080,322.181213 354.684509,329.174957 351.786255,335.875031 
	C349.996399,340.012817 347.476471,340.800659 343.486694,341.127258 
	C337.156006,341.645477 330.747742,342.453583 324.636566,344.112610 
	C316.409088,346.346161 308.614807,358.767273 311.803497,368.240234 
	C314.298737,375.653046 319.356140,380.522430 325.092529,384.888306 
	C331.760681,389.963287 332.677948,391.578766 331.098297,399.774841 
	C330.295502,403.940338 329.681610,408.142303 328.905792,413.182617 
z"/>
<path fill="#000000" opacity="0.000000" stroke="none"
	d="
M328.944061,412.755188 
	C329.681610,408.142303 330.295502,403.940338 331.098297,399.774841 
	C332.677948,391.578766 331.760681,389.963287 325.092529,384.888306 
	C319.356140,380.522430 314.298737,375.653046 311.803497,368.240234 
	C308.614807,358.767273 316.409088,346.346161 324.636566,344.112610 
	C330.747742,342.453583 337.156006,341.645477 343.486694,341.127258 
	C347.476471,340.800659 349.996399,340.012817 351.786255,335.875031 
	C354.684509,329.174957 357.688080,322.181213 362.232788,316.603363 
	C371.635803,305.062714 390.218933,308.580627 396.629669,323.198547 
	C398.795746,328.137817 400.539093,333.342926 403.362671,337.873779 
	C404.491058,339.684509 407.933929,340.442139 410.465240,340.908508 
	C415.768890,341.885681 421.233490,342.025391 426.510040,343.104919 
	C434.244324,344.687286 439.244385,349.941162 441.846954,357.073883 
	C444.705444,364.907959 442.291473,371.925781 436.647919,377.773651 
	C433.914948,380.605560 431.014191,383.401672 427.766541,385.584961 
	C420.696136,390.338196 421.747955,396.674316 423.170593,403.577179 
	C424.260559,408.865875 425.392487,414.450104 424.816162,419.717987 
	C423.392365,432.733093 408.719330,440.647278 396.783783,435.242432 
	C392.180389,433.157898 387.641937,430.745483 383.506073,427.862518 
	C378.956482,424.691223 375.267792,425.068665 370.520538,427.767242 
	C363.543243,431.733521 357.163757,437.811554 348.242401,436.955780 
	C335.912354,435.773071 326.559326,425.377502 328.944061,412.755188 
M404.963562,386.798615 
	C406.772400,383.901855 408.184692,380.632935 410.477356,378.190277 
	C414.536102,373.866089 419.208618,370.123810 423.437103,365.948425 
	C424.335144,365.061615 425.088348,363.115356 424.709839,362.107147 
	C424.336731,361.113281 422.503448,360.286499 421.205475,360.093079 
	C417.470398,359.536560 413.688538,359.192780 409.913544,359.023956 
	C397.870392,358.485352 389.476532,352.976807 385.164490,341.492737 
	C383.788635,337.828491 382.121429,334.247437 380.258636,330.806366 
	C379.606720,329.602142 378.030426,328.349854 376.758545,328.212982 
	C375.834961,328.113586 374.326996,329.614716 373.754486,330.744293 
	C371.237457,335.710358 369.081238,340.858917 366.577606,345.832245 
	C362.949097,353.040039 357.412872,357.508392 348.983582,358.059296 
	C343.603821,358.410858 338.243042,359.225433 332.916534,360.094757 
	C331.631683,360.304413 329.943665,361.316284 329.496704,362.396210 
	C329.109558,363.331604 329.867401,365.234955 330.730164,366.103424 
	C333.632843,369.025330 336.755524,371.737946 339.890076,374.418335 
	C346.922699,380.431885 351.461456,387.582886 349.930756,397.254425 
	C349.037506,402.898376 347.589966,408.452759 346.554504,414.077423 
	C346.311615,415.396759 346.258453,417.638977 346.945557,418.040527 
	C348.072144,418.698914 350.065643,418.643860 351.356537,418.095825 
	C354.347351,416.826141 357.172394,415.143921 360.000793,413.517883 
	C368.367523,408.707855 376.765137,404.023926 386.670471,409.332306 
	C391.418579,411.876892 395.956848,414.826965 400.777771,417.214691 
	C402.614807,418.124573 404.977020,417.974152 407.099884,418.306946 
	C407.083923,416.467896 407.142487,414.624176 407.026794,412.791412 
	C406.944733,411.491364 406.535767,410.213623 406.430115,408.913086 
	C405.853210,401.815155 405.325073,394.713257 404.963562,386.798615 
z"/>
<path fill="#41D840" opacity="1.000000" stroke="none" 
	d="
M404.871887,387.205658 
	C405.325073,394.713257 405.853210,401.815155 406.430115,408.913086 
	C406.535767,410.213623 406.944733,411.491364 407.026794,412.791412 
	C407.142487,414.624176 407.083923,416.467896 407.099884,418.306946 
	C404.977020,417.974152 402.614807,418.124573 400.777771,417.214691 
	C395.956848,414.826965 391.418579,411.876892 386.670471,409.332306 
	C376.765137,404.023926 368.367523,408.707855 360.000793,413.517883 
	C357.172394,415.143921 354.347351,416.826141 351.356537,418.095825 
	C350.065643,418.643860 348.072144,418.698914 346.945557,418.040527 
	C346.258453,417.638977 346.311615,415.396759 346.554504,414.077423 
	C347.589966,408.452759 349.037506,402.898376 349.930756,397.254425 
	C351.461456,387.582886 346.922699,380.431885 339.890076,374.418335 
	C336.755524,371.737946 333.632843,369.025330 330.730164,366.103424 
	C329.867401,365.234955 329.109558,363.331604 329.496704,362.396210 
	C329.943665,361.316284 331.631683,360.304413 332.916534,360.094757 
	C338.243042,359.225433 343.603821,358.410858 348.983582,358.059296 
	C357.412872,357.508392 362.949097,353.040039 366.577606,345.832245 
	C369.081238,340.858917 371.237457,335.710358 373.754486,330.744293 
	C374.326996,329.614716 375.834961,328.113586 376.758545,328.212982 
	C378.030426,328.349854 379.606720,329.602142 380.258636,330.806366 
	C382.121429,334.247437 383.788635,337.828491 385.164490,341.492737 
	C389.476532,352.976807 397.870392,358.485352 409.913544,359.023956 
	C413.688538,359.192780 417.470398,359.536560 421.205475,360.093079 
	C422.503448,360.286499 424.336731,361.113281 424.709839,362.107147 
	C425.088348,363.115356 424.335144,365.061615 423.437103,365.948425 
	C419.208618,370.123810 414.536102,373.866089 410.477356,378.190277 
	C408.184692,380.632935 406.772400,383.901855 404.871887,387.205658 
z"/>
</svg>